<svg xmlns="http://www.w3.org/2000/svg" height="800" width="1200" id="svg8" version="1.1" viewBox="-4.114725 -2.9089 35.66095 17.4534"><g transform="translate(-9.3087 -93.3721)" id="layer1"><g transform="translate(9.245 93.3666) scale(.26458)" id="g125" fill="none" fill-rule="evenodd"><path d="M30.992 26.514c-.427.373-1.146.8-2.264.8-1.33 0-2.048-.72-2.048-1.76 0-1.068.772-1.654 2.5-1.708l1.812-.052zm3.487 3.067c-.186-.587-.24-1.52-.24-3.335V21.26c0-3.308-1.89-4.588-5.005-4.588-1.675 0-3.246.267-4.924 1.387l1.039 2c.798-.48 1.864-.933 3.246-.933 1.331 0 2.397.613 2.397 2.134v.32l-2.236.08c-3.222.105-5.271 1.519-5.271 4.133 0 2.48 1.81 4.054 4.126 4.054 1.676 0 2.821-.64 3.646-1.388l.535 1.122zm7.851.266c-4.099 0-6.202-2.96-6.202-6.507 0-3.84 2.769-6.668 6.522-6.668 1.702 0 2.874.428 3.593.88l-.054 2.613c-.878-.665-1.862-1.039-3.168-1.039-2.154 0-3.7 1.707-3.7 4.053 0 2.16 1.174 4.081 3.675 4.081 1.197 0 2.103-.373 2.981-.88l.798 2.107c-1.012.693-2.715 1.36-4.444 1.36m11.339 0c-4.1 0-6.203-2.96-6.203-6.507 0-3.84 2.769-6.668 6.519-6.668 1.705 0 2.877.428 3.595.88l-.053 2.613c-.878-.665-1.863-1.039-3.168-1.039-2.155 0-3.7 1.707-3.7 4.053 0 2.16 1.172 4.081 3.673 4.081 1.199 0 2.105-.373 2.983-.88l.798 2.107c-1.013.693-2.715 1.36-4.445 1.36m7.993-14.827c-1.092 0-1.968-.853-1.968-1.949 0-1.04.876-1.92 1.968-1.92 1.119 0 1.995.854 1.995 1.92 0 1.068-.876 1.948-1.995 1.948zm-1.596 14.56h3.193V16.966h-3.193v12.616zm14.469-6.32c0 2.373-1.011 4.107-3.007 4.107-1.943 0-3.088-1.655-3.088-4.107 0-2.348.986-4.054 3.008-4.054 1.97 0 3.087 1.627 3.087 4.054zm3.275-.026c0-1.921-.587-3.575-1.677-4.748-1.118-1.147-2.688-1.814-4.632-1.814-1.836 0-3.352.667-4.471 1.788-1.172 1.199-1.836 2.907-1.836 4.88 0 2.026.692 3.76 1.942 4.933 1.09 1.015 2.582 1.574 4.34 1.574 1.889 0 3.432-.667 4.55-1.813 1.171-1.173 1.784-2.88 1.784-4.8zm10.141 6.346v-7.414c0-1.306-.241-2.748-1.865-2.748-1.117 0-2.21.588-3.193 1.335v8.828h-3.194V16.965h2.714l.347 1.36c1.356-1.013 2.714-1.653 4.418-1.653 1.917 0 3.966 1.146 3.966 4.535v8.374h-3.193m12.482-3.067c-.426.373-1.144.8-2.263.8-1.33 0-2.05-.72-2.05-1.76 0-1.068.772-1.654 2.503-1.708l1.81-.052zm3.486 3.067c-.185-.587-.239-1.52-.239-3.335V21.26c0-3.308-1.89-4.588-5.004-4.588-1.678 0-3.248.267-4.924 1.387l1.037 2c.799-.48 1.864-.933 3.248-.933 1.332 0 2.396.613 2.396 2.134v.32l-2.236.08c-3.22.105-5.27 1.519-5.27 4.133 0 2.48 1.81 4.054 4.124 4.054 1.679 0 2.822-.64 3.648-1.388l.532 1.122z" id="path119" fill="#1a1919"/><path d="M18.036 23.727c-.23-.938-.453-1.869-.654-2.797-.368-1.694-.667-3.371-.806-5.05a32.395 32.395 0 01-.076-1.36 30.534 30.534 0 01.2-5.248c.163-1.265.426-2.339.626-3.257-.202.16-.403.314-.606.46-.228.679-.506 1.626-.762 2.812a31.98 31.98 0 00-.468 2.73c-.944-.4-1.863-.878-2.705-1.449l.025 1.316a21.86 21.86 0 002.508 1.792 36.293 36.293 0 00.086 6.672c-1.817-.503-3.735-1.27-5.364-2.37l.025 1.314a22.704 22.704 0 005.627 3.405c.27 1.894.608 3.771.922 5.675-2.48-.333-5.827-1.24-8.43-3.006l.025 1.315c2.755 2.295 6.165 3.883 8.821 4.417.542 3.957.77 8.121-.195 12.9l3.095-1.816c1.2-6.777-.488-12.743-1.894-18.455" id="path121" fill="red"/><path d="M14.627 36.62c-3.984-.073-11.524-3.99-14.102-9.466l-.284-.604.387-.546c.907-1.284 1.993-3.433 1.993-6.386 0-.905-.157-1.98-.476-3.284l-.192-.78.668-.447c1.691-1.128 4.596-3.841 5.021-9.35l.071-.907.898-.134c1.737-.263 5.077-1.122 7.978-3.935 0 0 .542-.53.782-.76.241.23.783.76.783.76 2.901 2.813 6.242 3.672 7.978 3.935l.898.134.007.91c.033 4.131 1.85 5.814 2.559 6.317l-.634.552c-1.753-.7-3.839-2.262-4.119-5.802a17.346 17.346 0 01-7.315-3.57l-.15-.193-.155.193a17.047 17.047 0 01-7.265 3.53l-.165.037-.023.168c-.691 5.058-3.175 7.946-5.139 9.477l-.118.091.029.149c.246 1.212.363 2.136.363 2.909 0 2.5-.652 4.833-1.936 6.934l-.076.12.073.127c-.183 3.955 8.558 9.016 11.587 9.135l.074.686" id="path123" fill="red"/></g></g><style type="text/css" id="style10"/></svg>