<svg xmlns="http://www.w3.org/2000/svg" width="1200" height="565" viewBox="0 0 1200 565" version="1.1"><path d="M 27 282.978 L 27 424.007 168.250 423.753 L 309.500 423.500 309.781 320.500 C 310.030 229.265, 309.878 216.529, 308.453 209 C 306.349 197.883, 300.675 182, 298.808 182 C 298.363 182, 298 181.519, 298 180.930 C 298 179.108, 292.482 171.762, 286.785 166 C 277.307 156.412, 264.774 148.926, 251 144.625 C 244.664 142.646, 241.754 142.587, 135.750 142.272 L 27 141.949 27 282.978 M 701.500 142.965 C 678.487 145.804, 663.023 155.190, 655.214 171.058 C 646.339 189.090, 646.096 192.114, 646.043 285.038 C 645.990 378.812, 646.412 383.772, 655.830 400.188 C 661.381 409.864, 670.156 416.485, 683.534 421.092 C 689.999 423.318, 691.940 423.488, 710.500 423.454 C 728.975 423.419, 730.996 423.236, 737 421.052 C 752.025 415.588, 758.668 408.834, 764.592 393 C 765.926 389.434, 766.370 383.788, 766.732 365.793 L 767.189 343.085 764.796 342.485 C 763.480 342.155, 755.450 342.023, 746.952 342.192 L 731.500 342.500 730.875 357.500 C 729.971 379.170, 726.754 387.520, 717.604 391.950 C 712.145 394.592, 701.979 394.740, 697.019 392.248 C 692.458 389.958, 688.613 384.017, 686.613 376.169 C 685.191 370.589, 685 359.777, 685 284.981 C 685 212.353, 685.221 199.142, 686.534 193.312 C 688.185 185.977, 690.517 180.510, 693.148 177.806 C 697.744 173.081, 710.177 171.376, 717.554 174.458 C 723.015 176.740, 724.934 178.718, 727.782 185 C 729.988 189.867, 730.332 192.256, 730.771 205.750 L 731.268 221 749.235 221 L 767.202 221 766.730 200.250 C 766.242 178.761, 765.963 177.127, 760.940 166.232 C 756.541 156.690, 743.492 147.576, 730 144.623 C 721.508 142.764, 709.017 142.037, 701.500 142.965 M 373 283.410 L 373 422 408.500 422 C 453.760 422, 463.947 420.557, 476.544 412.361 C 487.024 405.542, 492.982 396.767, 496.993 382.245 C 500.918 368.033, 501.336 359.697, 501.734 287.500 C 502.220 199.463, 501.161 185.156, 492.924 168.500 C 487.299 157.128, 481.394 152.583, 466 147.778 C 460.005 145.907, 456.137 145.713, 416.250 145.285 L 373 144.820 373 283.410 M 529 283.500 L 529 422 581.500 422 L 634 422 634 406 L 634 390 601 390 L 568 390 568 343.500 L 568 297 597.418 297 C 613.598 297, 627.548 296.727, 628.418 296.393 C 629.769 295.875, 630 293.463, 630 279.893 L 630 264 599 264 L 568 264 567.999 220.750 L 567.999 177.500 599.598 177.791 C 622.529 178.002, 631.581 177.762, 632.598 176.918 C 633.689 176.013, 634 172.347, 634 160.378 L 634 145 581.500 145 L 529 145 529 283.500 M 786 283.500 L 786 422 803 422 L 820 422 820.063 298.750 C 820.098 230.963, 820.497 176.413, 820.949 177.529 C 821.402 178.644, 822.545 184.494, 823.491 190.529 C 824.436 196.563, 825.806 204.875, 826.535 209 C 827.264 213.125, 828.528 220.550, 829.345 225.500 C 830.161 230.450, 831.106 235.625, 831.444 237 C 831.783 238.375, 832.749 243.775, 833.592 249 C 835.630 261.629, 837.677 273.734, 839.427 283.500 C 840.215 287.900, 841.560 295.775, 842.415 301 C 843.270 306.225, 844.410 312.750, 844.947 315.500 C 845.484 318.250, 846.854 326.125, 847.990 333 C 849.127 339.875, 850.495 347.525, 851.030 350 C 851.565 352.475, 852.491 358.093, 853.087 362.484 C 853.684 366.876, 854.337 370.736, 854.539 371.062 C 854.740 371.389, 855.651 376.346, 856.562 382.078 C 857.472 387.810, 858.810 395.875, 859.533 400 C 860.257 404.125, 861.413 410.762, 862.102 414.750 L 863.355 422 882.616 422 L 901.877 422 902.530 417.250 C 902.889 414.637, 903.556 410.925, 904.012 409 C 904.467 407.075, 905.118 403.025, 905.458 400 C 905.798 396.975, 906.727 390.675, 907.522 386 C 910.028 371.270, 911.893 359.658, 912.500 355 C 912.823 352.525, 913.759 346.450, 914.580 341.500 C 915.401 336.550, 916.716 328.450, 917.501 323.500 C 918.286 318.550, 919.435 311.350, 920.054 307.500 C 921.101 300.991, 921.840 296.222, 925.478 272.500 C 926.237 267.550, 927.795 257.650, 928.940 250.500 C 930.085 243.350, 931.704 233, 932.536 227.500 C 933.369 222, 934.663 213.675, 935.412 209 C 936.161 204.325, 937.340 196.675, 938.032 192 C 941.765 166.778, 941.814 168.137, 941.909 297.750 L 942 422 960 422 L 978 422 978 283.500 L 978 145 948.199 145 L 918.398 145 917.124 152.750 C 916.424 157.012, 915.201 164.100, 914.407 168.500 C 913.613 172.900, 912.551 179.200, 912.048 182.500 C 910.093 195.323, 908.032 207.611, 907.434 210 C 907.090 211.375, 906.142 216.775, 905.327 222 C 904.512 227.225, 903.246 235.325, 902.514 240 C 901.782 244.675, 900.222 253.900, 899.047 260.500 C 897.872 267.100, 896.482 275.631, 895.957 279.458 C 895.432 283.285, 894.734 287.261, 894.407 288.294 C 894.079 289.326, 893.214 294.070, 892.484 298.835 C 891.754 303.601, 890.441 312.165, 889.566 317.866 C 888.691 323.567, 887.791 328.530, 887.566 328.894 C 887.340 329.258, 886.641 333.369, 886.012 338.028 C 885.383 342.688, 884.360 348.525, 883.739 351 L 882.609 355.500 881.831 352 C 881.404 350.075, 880.595 345.575, 880.034 342 C 879.473 338.425, 878.369 331.900, 877.579 327.500 C 874.963 312.927, 871.923 294.619, 870.022 282 C 869.483 278.425, 868.384 271.900, 867.580 267.500 C 866.775 263.100, 865.369 255, 864.455 249.500 C 863.541 244, 862.199 236.125, 861.472 232 C 860.746 227.875, 859.858 222.475, 859.500 220 C 859.142 217.525, 858.254 212.125, 857.528 208 C 856.801 203.875, 855.492 196.225, 854.618 191 C 853.745 185.775, 852.529 178.575, 851.918 175 C 851.306 171.425, 850.413 165.800, 849.934 162.500 C 849.454 159.200, 848.537 153.912, 847.894 150.750 L 846.727 145 816.363 145 L 786 145 786 283.500 M 1005 283.500 L 1005 422 1024.500 422 L 1044 422 1044 283.500 L 1044 145 1024.500 145 L 1005 145 1005 283.500 M 1071 283.500 L 1071 422 1122.500 422 L 1174 422 1174 406 L 1174 390 1142 390 L 1110 390 1110 267.500 L 1110 145 1090.500 145 L 1071 145 1071 283.500 M 411.414 177.917 C 411.186 178.146, 411 226.013, 411 284.288 L 411 390.243 426.250 389.787 C 440.401 389.363, 441.851 389.139, 446.372 386.679 C 454.482 382.267, 457.559 377.719, 460.700 365.500 C 462.357 359.056, 462.500 352.383, 462.500 281.500 C 462.500 208.948, 462.390 204.111, 460.604 197.760 C 458.405 189.942, 453.891 184.026, 447.643 180.776 C 444.090 178.928, 441.244 178.542, 427.664 178.061 C 418.954 177.752, 411.641 177.688, 411.414 177.917 M 88.667 203.667 C 87.643 204.690, 87.911 308.314, 88.963 318.314 C 90.189 329.967, 94.913 339.803, 103.274 348.112 C 106.532 351.351, 109.828 354, 110.599 354 C 111.370 354, 112 354.367, 112 354.815 C 112 356.015, 118.586 358.984, 125.997 361.124 C 132.016 362.862, 136.739 363, 190.247 363 L 248 363 248 283 L 248 203 168.667 203 C 125.033 203, 89.033 203.300, 88.667 203.667 M 112.531 227.950 C 112.208 228.472, 112.070 249.060, 112.225 273.700 C 112.489 315.807, 112.623 318.740, 114.461 322.500 C 117.322 328.352, 125.171 335.673, 130.227 337.205 C 133.449 338.182, 145.445 338.500, 179 338.500 L 223.500 338.500 223.758 282.750 L 224.017 227 168.567 227 C 134.632 227, 112.890 227.369, 112.531 227.950" stroke="none" fill="#064d8c" fill-rule="evenodd"/></svg>