<svg xmlns="http://www.w3.org/2000/svg" height="800" width="1200" version="1.0" viewBox="-39.330525 -9.456 340.86455 56.736"><path d="M11.5547 0h33.0899v37.824H11.5547z" fill="#211f1f"/><path d="M15.1055 3.75h25.9727v3.66H24.0078v3.621l17.0704-.019v3.715l-17.0704-.028.0157 3.528h-8.918zm0 16.07h8.9023v4.137h8.2149l-.0234-4.137h8.8789v14.512h-8.8594l.004-6.727h-8.2149v6.727h-8.9023z" fill="#fff"/><path d="M67.7735 9.402h-15.461v18.989h7.145v-5.379h8.316v-5.325h-8.316v-2.05h8.316zm19.512 3.047h-7.086v10.305c0 1.539-.371 2.078-1.426 2.078-1.082 0-1.449-.539-1.449-2.078V12.449h-7.09v9.535c0 2.164.34 3.672 1.023 4.555 1.254 1.652 3.93 2.563 7.489 2.563 3.047 0 5.41-.653 6.863-1.879 1.223-1.024 1.676-2.477 1.676-5.239zm9.175-3.789h-7.089v19.731h7.089zm16.028 3.789h-4.953V9.285h-3.871c-2.196 2.594-2.594 2.992-5.325 5.242v3.36h2.164v6.574c0 1.766.2 2.449.997 3.246.851.855 2.363 1.254 4.808 1.254 1.738 0 3.305-.172 5.524-.57l.171-4.016-.511.086c-1.168.23-1.196.23-1.907.23-1.652 0-2.05-.371-2.05-1.879v-4.925h4.953z" fill="#0099c7"/><path d="M122.8045 17.543c1.707 0 2.278.824 2.278 3.246 0 2.164-.743 3.219-2.278 3.219-.883 0-1.679-.43-1.992-1.082-.23-.543-.371-1.481-.371-2.649 0-1.992.625-2.734 2.363-2.734m.227-5.664c-3.074 0-4.867.34-6.379 1.254-1.961 1.195-2.961 3.527-2.961 7.058 0 3.418 1.027 5.95 2.992 7.317 1.395.969 3.445 1.453 6.235 1.453 6.261 0 8.91-2.676 8.91-9.055 0-3.16-.684-5.039-2.332-6.347-1.481-1.168-3.446-1.68-6.465-1.68" fill="#0099c7" fill-rule="evenodd"/><path d="M140.4455 12.449h-6.52v15.942h6.946v-8.684c0-1.309.742-2.078 2.05-2.078.657 0 1.082.172 1.426.543.313.367.313.453.34 1.879v8.34h7.09V17.23c0-1.453-.371-2.761-.91-3.445-.969-1.137-2.59-1.707-4.899-1.707-3.16 0-4.84.969-5.351 3.188h-.172zm33.855 9.164v6.778h7.2V9.402h-7.2v6.719h-4.043V9.402h-7.203v18.989h7.203v-6.778z" fill="#0099c7"/><path d="M192.8085 17.543c1.707 0 2.277.824 2.277 3.246 0 2.164-.742 3.219-2.277 3.219-.883 0-1.683-.43-1.996-1.082-.227-.543-.367-1.481-.367-2.649 0-1.992.625-2.734 2.363-2.734m.227-5.664c-3.075 0-4.867.34-6.379 1.254-1.965 1.195-2.961 3.527-2.961 7.058 0 3.418 1.027 5.95 2.992 7.317 1.395.969 3.441 1.453 6.234 1.453 6.262 0 8.911-2.676 8.911-9.055 0-3.16-.684-5.039-2.336-6.347-1.481-1.168-3.446-1.68-6.461-1.68m19.859 5.551c1.481 0 2.195.882 2.195 2.707 0 .851-.257 1.847-.57 2.304-.285.426-.969.684-1.738.684-1.453 0-2.133-.91-2.133-2.906 0-1.907.711-2.789 2.246-2.789m8.914-4.985h-6.863v2.707h-.141c-.484-2.078-2.023-3.074-4.84-3.074-4.3 0-6.265 2.305-6.265 7.371 0 5.582 1.738 7.774 6.152 7.774 2.676 0 4.184-.883 4.953-2.961h.141v1.453c0 2.019-1.453 2.847-4.953 2.847-1.539 0-2.164-.085-5.211-.625l.543 3.758c2.676.481 4.695.684 6.89.684 6.719 0 9.594-1.996 9.594-6.664zm11.07 5.442c1.54 0 2.11.769 2.11 2.73 0 2.195-.629 3.106-2.164 3.106-1.453 0-2.164-1.024-2.164-3.133 0-1.821.711-2.703 2.218-2.703m9.114-5.438h-7.094v2.731h-.141c-.742-2.563-1.82-3.301-4.953-3.301-2.078 0-3.472.426-4.441 1.394-1.281 1.309-1.879 3.332-1.879 6.407 0 3.359.539 5.636 1.68 7.203.91 1.254 2.535 1.879 4.839 1.879 2.79 0 3.903-.684 4.754-3.02h.141v2.649h7.094z" fill="#0099c7" fill-rule="evenodd"/><path d="M250.8755 12.449h-6.52v15.942h6.945v-8.684c0-1.309.743-2.078 2.051-2.078.656 0 1.082.172 1.422.543.312.367.312.453.344 1.879v8.34h7.086V17.23c0-1.453-.368-2.761-.91-3.445-.969-1.137-2.59-1.707-4.895-1.707-3.16 0-4.84.969-5.352 3.188h-.171z" fill="#0099c7"/><path d="M0 0h10.1407v37.812H0z" fill="#f58325"/></svg>