<svg xmlns="http://www.w3.org/2000/svg" width="1598" height="526" viewBox="0 0 1598 526" version="1.1"><path d="" stroke="none" fill="#f01434" fill-rule="evenodd"/><path d="M 995 1.521 C 980.585 3.771, 961.839 11.415, 951 19.463 C 939.674 27.872, 928.279 41.786, 922.531 54.227 C 905.418 91.266, 912.591 138.026, 939.595 165.465 C 958.932 185.114, 984.178 194.985, 1015.119 194.996 C 1063.158 195.013, 1100.697 167.795, 1112.757 124.203 C 1115.188 115.414, 1115.440 112.898, 1115.425 97.500 C 1115.407 78.882, 1113.924 70.769, 1107.988 56.815 C 1090.701 16.176, 1044.851 -6.262, 995 1.521 M 809.667 4.667 C 809.300 5.033, 808.996 33.046, 808.990 66.917 L 808.980 128.500 806.598 133.617 C 802.223 143.013, 793.640 146.791, 779.156 145.695 C 768.347 144.878, 763.349 142.034, 759.503 134.513 C 756.618 128.874, 756.486 128.038, 756.143 113.321 L 755.786 98 729.797 98 L 703.807 98 704.271 120.250 C 704.775 144.450, 705.591 149.249, 711.124 160.561 C 718.878 176.414, 732.488 186.991, 751.803 192.175 C 761.624 194.810, 791.597 195.874, 804.184 194.033 C 833.970 189.678, 853.575 174.278, 862.152 148.500 L 864.481 141.500 864.780 72.750 L 865.078 4 837.706 4 C 822.651 4, 810.033 4.300, 809.667 4.667 M 1164 98.500 L 1164 193.032 1191.750 192.766 L 1219.500 192.500 1219.763 157.750 L 1220.026 123 1259.013 123 L 1298 123 1298 158 L 1298 193 1326 193 L 1354 193 1354 98.484 L 1354 3.968 1326.250 4.234 L 1298.500 4.500 1298.237 39.750 L 1297.974 75 1259 75 L 1220.026 75 1219.763 39.750 L 1219.500 4.500 1191.750 4.234 L 1164 3.968 1164 98.500 M 1408.461 5.250 C 1408.199 5.938, 1408.100 48.575, 1408.242 100 L 1408.500 193.500 1435.500 193.500 L 1462.500 193.500 1462.758 136.685 L 1463.017 79.870 1472.688 92.185 C 1478.008 98.958, 1497.879 124.300, 1516.847 148.500 C 1535.815 172.700, 1551.821 192.831, 1552.417 193.235 C 1553.013 193.639, 1563.513 193.976, 1575.750 193.985 L 1598 194 1598 99 L 1598 4 1572.009 4 L 1546.019 4 1545.759 53.684 L 1545.500 103.367 1507.500 53.693 L 1469.500 4.018 1439.219 4.009 C 1415.907 4.002, 1408.828 4.288, 1408.461 5.250 M 1006 50.142 C 997.981 51.467, 989.079 56.015, 983.438 61.668 C 974.026 71.101, 970 81.995, 970 98.029 C 970 108.293, 971.528 115.152, 975.610 123.213 C 986.322 144.368, 1015.061 152.344, 1037.186 140.302 C 1062.904 126.305, 1067.747 83.578, 1046.067 61.945 C 1039.601 55.493, 1033.987 52.528, 1024.385 50.493 C 1016.723 48.870, 1014.014 48.818, 1006 50.142 M 871 261.503 L 871 286.007 1014.750 285.753 L 1158.500 285.500 1158.768 261.250 L 1159.036 237 1015.018 237 L 871 237 871 261.503 M 323.500 332.127 C 297.158 335.418, 273.229 348.417, 257.821 367.805 C 246.677 381.829, 239.753 399.942, 238.249 419 C 235.702 451.297, 245.456 478.805, 266.638 499.061 C 280.667 512.476, 296.888 520.625, 317.250 524.488 C 327.836 526.496, 350.317 526.467, 361.049 524.431 C 405.167 516.062, 436.813 481.533, 439.805 438.500 C 442.503 399.681, 428.502 368.368, 399.691 348.792 C 379.261 334.911, 350.892 328.706, 323.500 332.127 M 488.682 334.651 C 488.307 335.026, 488 377.561, 488 429.173 L 488 523.012 568.750 522.756 L 649.500 522.500 649.500 499 L 649.500 475.500 596.757 475.241 L 544.014 474.982 543.757 404.741 L 543.500 334.500 516.432 334.234 C 501.545 334.088, 489.058 334.276, 488.682 334.651 M 704 428.500 L 704 523 784.500 523 L 865 523 865 499 L 865 475 812 475 L 759 475 759 404.500 L 759 334 731.500 334 L 704 334 704 428.500 M 983.223 338.750 C 982.110 341.363, 964.284 383.165, 943.609 431.644 C 922.934 480.124, 905.738 520.518, 905.396 521.410 C 904.830 522.886, 907.318 523.008, 933.041 522.766 L 961.307 522.500 986.904 460.251 C 1004.736 416.884, 1012.776 398.415, 1013.409 399.365 C 1013.909 400.115, 1025.633 428.127, 1039.461 461.614 L 1064.603 522.500 1094.422 522.765 C 1122.508 523.015, 1124.213 522.928, 1123.750 521.265 C 1123.479 520.294, 1108.069 483.725, 1089.504 440 C 1070.940 396.275, 1053.244 354.538, 1050.181 347.250 L 1044.612 334 1014.929 334 L 985.246 334 983.223 338.750 M 1163 428.500 L 1163 523 1189.992 523 L 1216.984 523 1217.242 466.098 L 1217.500 409.197 1262 466.049 L 1306.500 522.902 1329.750 522.951 L 1353 523 1353 428.483 L 1353 333.967 1326.750 334.233 L 1300.500 334.500 1300 383.302 L 1299.500 432.104 1262 383.063 L 1224.500 334.023 1193.750 334.011 L 1163 334 1163 428.500 M 1408.739 334.594 C 1408.333 335.001, 1408 377.558, 1408 429.167 L 1408 523 1454.122 523 C 1506.192 523, 1514.137 522.325, 1532 516.388 C 1570.173 503.699, 1590.936 476.344, 1593.633 435.186 C 1595.423 407.871, 1587.067 381.649, 1571.218 364.849 C 1557.302 350.096, 1542.047 342.053, 1518 336.788 C 1509.272 334.877, 1504.477 334.674, 1458.989 334.281 C 1431.759 334.046, 1409.146 334.187, 1408.739 334.594 M 0 429.500 L 0 524 27.500 524 L 55 524 55 489 L 55 454 94.500 454 L 134 454 134 489 L 134 524 161.500 524 L 189 524 189 429.500 L 189 335 161.500 335 L 134 335 134 370 L 134 405 94.500 405 L 55 405 55 370 L 55 335 27.500 335 L 0 335 0 429.500 M 324.487 382.746 C 312.525 387.008, 304.319 394.326, 299.050 405.431 C 295.067 413.825, 293.591 422.347, 294.305 432.819 C 295.673 452.877, 305.549 467.638, 322 474.212 C 330.060 477.433, 348.022 477.391, 356.252 474.132 C 372.763 467.595, 382.628 452.455, 383.703 432 C 384.870 409.813, 375.805 392.986, 358.223 384.702 C 352.143 381.837, 350.449 381.507, 340.500 381.247 C 331.924 381.023, 328.395 381.354, 324.487 382.746 M 1464 428.500 L 1464 476.248 1481.750 475.741 C 1505.246 475.069, 1513.037 472.708, 1523.278 463.157 C 1533.292 453.817, 1537.233 444.007, 1537.200 428.500 C 1537.157 408.548, 1529.770 394.997, 1514.786 387.385 C 1505.759 382.798, 1500.597 381.845, 1481.750 381.282 L 1464 380.752 1464 428.500" stroke="none" fill="#ec1434" fill-rule="evenodd"/></svg>