<svg preserveAspectRatio="xMidYMid meet" data-bbox="211.8 143.9 826.1 318.2" height="564" width="1172" viewBox="211.8 143.9 826.1 318.2" xmlns="http://www.w3.org/2000/svg" data-type="color" role="presentation" aria-hidden="true">
    <g>
        <path d="m1037.9 415.8-826.1.2V308.4l751.5.1z" fill="#6b7071" data-color="1"></path>
        <path d="M430.9 308.5 524.3 416H211.8V308.4z" fill="#4a4a4c" data-color="2"></path>
        <path d="m751.1 308.6-76 107.2h-54.4l76.2-107.3z" fill="#6b7071" data-color="1"></path>
        <path d="m805.4 308.6-76.1 107.2h-54.2l76-107.3z" fill="#696b6c" data-color="3"></path>
        <path d="m859.9 308.6-76.3 107.2h-54.3l76.1-107.3z" fill="#5f6061" data-color="4"></path>
        <path d="m913.7 308.6-75.6 107.2h-54.5l76.3-107.2z" fill="#4a4a4c" data-color="2"></path>
        <path d="m963.3 308.5 74.6 107.3H838.1l75.6-107.3z" fill="#4a4a4c" data-color="2"></path>
        <path d="m395.5 266.2 27.2 28.8h-61.4l-33.1-39.2h-70.5V295h-45.9v-75.8h129.1q10.6 0 18-4.5 7.3-4.4 7.3-12.2 0-8.6-6.7-13-6.6-4.3-18.6-4.3H211.8v-38.6h125.3q12.7 0 26.2 2.3 13.5 2.4 24.6 8.4 11.1 5.9 18.3 16.2 7.2 10.2 7.2 26.1 0 8.7-2.6 16.5-2.7 7.7-7.7 13.9t-12.2 10.6q-7.2 4.3-16.3 6.1 3.8 2.9 8.4 7.3 4.7 4.4 12.5 12.2z" fill="#00adee" data-color="5"></path>
        <path d="M860.2 256.9q7.2 0 12.5.4-3.1-4-7.2-10.1t-7.9-11.4L831 196.5 761.3 295H707l95.1-134.2q4.7-6.4 11.8-11.5 7.1-5.1 18-5.1 10.4 0 17.4 4.7 7 4.8 11.9 11.9L953.9 295H781.3l27.7-38.1h51.2z" fill="#00adee" data-color="5"></path>
        <path d="M700.7 294.7h-45l-14-51.7q-3.3-12.6-5.7-22.3-2.5-9.6-4.2-18.5-1.8 3.8-3.7 7.8-1.9 4-4.4 8.7-2.6 4.8-5.7 10.8-3.1 6-7.1 13.5l-20 37.5q-2.9 5.6-5.9 8.8-2.9 3.2-6.1 5-3.1 1.8-6.6 2.3-3.5.6-7.6.6h-.2q-4.1 0-7.5-.6-3.6-.5-6.7-2.3-3.1-1.8-6.1-5-3-3.2-5.9-8.8L518.4 243q-4-7.5-7.1-13.5-3.1-6-5.7-10.8-2.5-4.7-4.4-8.7-1.9-4-3.7-7.8-1.8 8.9-4.2 18.5-2.4 9.7-5.8 22.3l-13.9 51.7h-45.1l38.4-130.4q3.1-10.5 10.2-15.4 7.1-5 15.8-5 8.8 0 14.9 4.2t10.1 11.5l23.8 41.9q4.8 8.7 8.5 15.2 3.7 6.6 6.4 11.7 2.8 5.1 4.9 9.3c1.1 2.1 2.1 4.2 3.1 6.2 1.1-2 2.1-4.1 3.1-6.2q2.2-4.2 4.9-9.3 2.8-5.1 6.5-11.7 3.6-6.5 8.5-15.2l23.7-41.9q4-7.3 10.1-11.5t15-4.2q8.7 0 15.8 5 7.1 4.9 10.2 15.4z" fill="#00adee" data-color="5"></path>
        <path d="M319.1 371.8v1.5q.1.7.1 1.3 0 .7.1 1.4v1.4q0 12-10 15.5-10.1 3.5-25.7 3.5l-13.3.1q-21-.1-27.8-7.1-6.8-7.1-6.8-20.2v-2.5q-.1-1.3-.1-2.5 0-.6-.1-1.2v-1.2q0-1.8-.1-3.7-.1-1.9-.1-3.7 0-17.1 11.3-21.8 11.2-4.7 33.7-4.7h9.4q7 .1 13.5 1.4 6.5 1.2 10.6 5.3 2.6 2.7 3.4 5.8.8 3.1 1.1 6.1 0 .6.1 1.3v1.1q0 .6.1 1.1.1.6.1 1.1h-19q-.3-.7-.4-1.5-.1-.8-.1-1.6 0-.2-.1-.4-.1-.1-.1-.4-.1-2.9-1.5-5.2-1.5-2.4-9.1-2.7-2.1-.2-4.3-.2h-10.4q-1.5 0-2.9.1-3.4.2-6.4.8-3.1.5-4.9 1.8-1.8 1.3-2.6 3-.8 1.6-1 3.4-.2.7-.2 1.4-.1.7-.1 1.4l-.2 3.2q-.1 1.6-.1 3.2 0 3.3.1 6.6t.2 6.5q.1 10.2 5.1 12.6 4.9 2.4 19.1 2.4 8.4 0 14.6-1.3 6.2-1.2 6.2-8.1V374q-.1-.5-.1-1.1v-1.1z" fill="#fefefe" data-color="6"></path>
        <path d="M346.8 396.1h-19.1v-67.8h19.1z" fill="#fefefe" data-color="6"></path>
        <path d="m443.9 328.3-32.1 67.8h-28.9l-31.8-67.8h19.5l26.8 57 26.7-57z" fill="#fefefe" data-color="6"></path>
        <path d="M466.9 396.1h-19.1v-67.8h19.1z" fill="#fefefe" data-color="6"></path>
        <path d="M500.7 384.8H547v11.3h-65.6v-67.8h19.3z" fill="#fefefe" data-color="6"></path>
        <path d="m260.4 461.8-7.5.3h-3.2l-6.4-.3q-7.8-.8-7.8-8.3l-.1-5.5v-4.9q.1-1.7.7-4.5.5-2.9 2.7-4.4 2.2-1.5 6-1.5 1.8-.2 3.3-.2 1.6-.1 3.7-.1h5.2q2.5 0 4.1.1 1.5.2 4.1.7 2.5.5 3.5 2.8t1 6.1h-3.5v-.2q0-2.1-.2-3.3-.2-1.3-1.1-1.9-.9-.6-3.3-.9-2.4-.3-6.6-.3-1.6 0-4.8.1-3.1.2-4.8.2-3.7.3-4.7 1.3-1.1 1-1.3 3.6-.3 2.5-.3 4.6-.1 2.1-.1 3.9 0 5.6 1.1 7.7 1.1 2.1 5.9 2.1h13.3q4 0 5.5-.9 1.6-1 1.6-4.6v-1.2h3.7q0 5.6-1.8 7.5-1.7 2-7.9 2z" fill="#ffffff" data-color="1"></path>
        <path d="M286.4 432.4h12.9q9 0 11.6 2.4 2.5 2.5 2.5 11.3v1.9q0 3.2-.4 6.6-.3 3.5-2.4 5.4-2.2 1.8-6.4 1.8-1.3.2-3.3.2h-11.1q-2.7 0-5.1-.2-2.5-.3-4.1-1-1.7-.7-2.8-2.4-1-1.7-1.4-4.5-.3-2.7-.3-6.5 0-3.5.1-5 .1-1.6.7-4.5.7-2.9 3.1-4.2 2.4-1.3 6.4-1.3zm.8 26.4 7.5.2h3.6q3.1 0 6.3-.3 3.1-.3 4.1-2.1 1.1-1.7 1.1-5.3v-5.9q0-2.8-.3-4.8-.2-2-.9-3.1-.8-1.1-2-1.4-1.2-.3-2.4-.4-1.2-.1-2.6-.1l-6.8-.1-6.8.1q-4.9 0-6.5 1.2-1.6 1.3-1.6 6.1l-.1 4.4v2.1q0 5.5 1.2 7.5 1.1 1.9 6.2 1.9z" fill-rule="evenodd" fill="#ffffff" data-color="1"></path>
        <path d="M320.6 461.7v-29h5.9l26.7 26.3v-26.3h3.6v29H351l-26.9-26.3v26.3z" fill="#ffffff" data-color="1"></path>
        <path d="M391.2 436.5q-.9-.4-3.3-.7-2.4-.3-6.1-.3h-1.3q-2.8 0-5.9.2-3.1.3-4.5.9-1.3.6-1.7 1.7-.4 1.1-.4 2.5 0 2.7 1.4 3.7 1.5 1 4.3 1h13.1q1.4.1 4.2.4 2.8.3 4.6 1.9 1.7 1.7 1.7 5.7 0 2.7-.9 4.4-.8 1.8-2.8 2.7-1.9.9-4.7 1.1-2.8.3-6.1.3h-2.4q-3.2 0-4.8-.1-1.7 0-5-.5-3.4-.4-4.8-2.4-1.5-1.9-1.5-6.7h3.5v.7q0 2.3.5 3.5.4 1.1 2.1 1.6 1.7.5 4.6.7 2.8.2 5.6.2 4.5 0 7.7-.4 3.1-.4 4.2-1.5t1.1-3.6q0-3.2-1.4-4-1.5-.9-5-.9h-6.6l-7.8-.2q-4.1 0-6.3-1.6-2.2-1.5-2.2-5.3 0-2.9 1-4.9.9-2 3.2-2.8 2.3-.9 5.4-1.1 3-.3 6.9-.3 3.1 0 4.6.1 1.4.1 4.6.4 3.1.3 4.8 2.3 1.7 1.9 1.7 5.9H393q0-2.1-.4-3.1-.5-1-1.4-1.5z" fill="#ffffff" data-color="1"></path>
        <path d="M414.4 461.7v-26h-14.6v-3h32.9v3H418v26z" fill="#ffffff" data-color="1"></path>
        <path d="M469.9 441.3q0 4-1.2 5.4-1.1 1.5-5 2 2.9.4 4.3 1.4 1.4 1.1 1.4 3.8v7.8h-3.5v-6.4q0-3.2-1.4-4.3-1.4-1-4.8-1H440v11.7h-3.6v-29h23.7q5.2 0 7.5 1.8t2.3 6.8zm-3.7-.2q0-3.4-1.6-4.4-1.6-1-5.3-1H440v11.4h19.4q3.8 0 5.3-1.2t1.5-4.8z" fill-rule="evenodd" fill="#ffffff" data-color="1"></path>
        <path d="M510.7 452.7q0 6.2-2.5 7.7t-9.3 1.5l-5.8.1-8.3-.1q-4.3 0-6.3-1.9t-2-6.2v-21h3.6v20.5q0 3.5 1.5 4.5 1.6.9 5.4.9l6.2.3 6.7-.3q4.1 0 5.7-1 1.5-1 1.5-4.6v-20.3h3.6z" fill="#ffffff" data-color="1"></path>
        <path d="m542.7 461.8-7.5.3H532l-6.5-.3q-7.7-.8-7.7-8.3l-.2-5.5q0-3.3.1-4.9 0-1.7.6-4.5.6-2.9 2.8-4.4 2.1-1.5 6-1.5 1.7-.2 3.3-.2 1.5-.1 3.6-.1h5.2q2.5 0 4.1.1 1.6.2 4.1.7 2.6.5 3.6 2.8t1 6.1h-3.5v-.2q0-2.1-.3-3.3-.2-1.3-1.1-1.9-.9-.6-3.3-.9-2.4-.3-6.6-.3-1.5 0-4.7.1-3.2.2-4.8.2-3.7.3-4.8 1.3-1 1-1.3 3.6-.2 2.5-.3 4.6v3.9q0 5.6 1.1 7.7 1.1 2.1 5.9 2.1h13.2q4 0 5.6-.9 1.6-1 1.6-4.6v-1.2h3.6q0 5.6-1.7 7.5-1.8 2-7.9 2z" fill="#ffffff" data-color="1"></path>
        <path d="M569.5 461.7v-26h-14.6v-3h32.8v3h-14.6v26z" fill="#ffffff" data-color="1"></path>
        <path d="M595 461.7h-3.5v-29h3.5z" fill="#ffffff" data-color="1"></path>
        <path d="M612.6 432.4h12.8q9 0 11.6 2.4 2.5 2.5 2.5 11.3v1.9q0 3.2-.3 6.6-.4 3.5-2.5 5.4-2.1 1.8-6.3 1.8-1.3.2-3.4.2h-11.1q-2.6 0-5.1-.2-2.4-.3-4.1-1-1.7-.7-2.8-2.4-1-1.7-1.3-4.5-.3-2.7-.3-6.5 0-3.5.1-5 0-1.6.7-4.5.6-2.9 3-4.2 2.5-1.3 6.5-1.3zm.7 26.4 7.5.2h3.7q3 0 6.2-.3 3.1-.3 4.2-2.1 1-1.7 1-5.3v-5.9q0-2.8-.2-4.8-.3-2-1-3.1t-1.9-1.4q-1.2-.3-2.5-.4-1.2-.1-2.6-.1l-6.8-.1-6.8.1q-4.9 0-6.5 1.2-1.5 1.3-1.5 6.1l-.2 4.4v2.1q0 5.5 1.2 7.5 1.2 1.9 6.2 1.9z" fill-rule="evenodd" fill="#ffffff" data-color="1"></path>
        <path d="M646.7 461.7v-29h5.9l26.8 26.3v-26.3h3.5v29h-5.8l-26.8-26.3v26.3z" fill="#ffffff" data-color="1"></path>
    </g>
</svg>